HIERARCHY
ROOT SpineBase
{
  OFFSET 0.000000 0.000000 0.000000
  CHANNELS 6 Xposition Yposition Zposition Zrotation Xrotation Yrotation
  JOINT SpineMid
  {
    OFFSET 0.000000 30.295815 0.000000
    CHANNELS 3 Zrotation Xrotation Yrotation
    JOINT SpineShoulder
    {
      OFFSET -0.114613 22.504464 -0.893586
      CHANNELS 3 Zrotation Xrotation Yrotation
      JOINT Neck
      {
        OFFSET -0.037169 7.435920 -0.625308
        CHANNELS 3 Zrotation Xrotation Yrotation
        JOINT Head
        {
          OFFSET -5.473099 13.636747 3.354160
          CHANNELS 3 Zrotation Xrotation Yrotation
          End Site
          {
            OFFSET 0 0 0
          }
        }
      }
      JOINT ShoulderLeft
      {
        OFFSET -12.316009 -8.385476 15.181359
        CHANNELS 3 Zrotation Xrotation Yrotation
        JOINT ElbowLeft
        {
          OFFSET -0.143690 -25.997197 -1.014261
          CHANNELS 3 Zrotation Xrotation Yrotation
          JOINT WristLeft
          {
            OFFSET -2.748039 -19.792306 -8.189351
            CHANNELS 3 Zrotation Xrotation Yrotation
            JOINT HandLeft
            {
              OFFSET 0.332396 -4.418529 -2.788729
              CHANNELS 3 Zrotation Xrotation Yrotation
              JOINT HandTipLeft
              {
                OFFSET 0.729209 -8.786505 -2.056120
                CHANNELS 3 Zrotation Xrotation Yrotation
                End Site
                {
                  OFFSET 0 0 0
                }
              }
              JOINT ThumbLeft
              {
                OFFSET -2.979489 0.528484 -1.250644
                CHANNELS 3 Zrotation Xrotation Yrotation
                End Site
                {
                  OFFSET 0 0 0
                }
              }
            }
          }
        }
      }
      JOINT ShoulderRight
      {
        OFFSET 10.216892 -3.173051 -12.968865
        CHANNELS 3 Zrotation Xrotation Yrotation
        JOINT ElbowRight
        {
          OFFSET 5.471280 -20.747830 -6.289571
          CHANNELS 3 Zrotation Xrotation Yrotation
          JOINT WristRight
          {
            OFFSET -4.832551 -21.513129 -2.613185
            CHANNELS 3 Zrotation Xrotation Yrotation
            JOINT HandRight
            {
              OFFSET -2.673785 -7.916571 0.921117
              CHANNELS 3 Zrotation Xrotation Yrotation
              JOINT HandTipRight
              {
                OFFSET -2.210314 -6.775146 -1.069675
                CHANNELS 3 Zrotation Xrotation Yrotation
                End Site
                {
                  OFFSET 0 0 0
                }
              }
              JOINT ThumbRight
              {
                OFFSET 3.810882 -0.981917 -0.714761
                CHANNELS 3 Zrotation Xrotation Yrotation
                End Site
                {
                  OFFSET 0 0 0
                }
              }
            }
          }
        }
      }
    }
  }
  JOINT HipLeft
  {
    OFFSET -5.161625 -0.303796 1.354106
    CHANNELS 3 Zrotation Xrotation Yrotation
    JOINT KneeLeft
    {
      OFFSET -1.624728 -30.500110 -0.504677
      CHANNELS 3 Zrotation Xrotation Yrotation
      JOINT AnkleLeft
      {
        OFFSET 1.271362 -34.360737 2.741170
        CHANNELS 3 Zrotation Xrotation Yrotation
        JOINT FootLeft
        {
          OFFSET -3.771326 -7.331033 -6.228766
          CHANNELS 3 Zrotation Xrotation Yrotation
          End Site
          {
            OFFSET 0 0 0
          }
        }
      }
    }
  }
  JOINT HipRight
  {
    OFFSET 4.269338 1.708080 -8.548958
    CHANNELS 3 Zrotation Xrotation Yrotation
    JOINT KneeRight
    {
      OFFSET 8.812717 -27.852358 -7.834972
      CHANNELS 3 Zrotation Xrotation Yrotation
      JOINT AnkleRight
      {
        OFFSET 8.515701 -36.523101 7.626127
        CHANNELS 3 Zrotation Xrotation Yrotation
        JOINT FootRight
        {
          OFFSET -3.664034 -8.803460 -4.535470
          CHANNELS 3 Zrotation Xrotation Yrotation
          End Site
          {
            OFFSET 0 0 0
          }
        }
      }
    }
  }
}
MOTION
Frames: 15
Frame Time: 0.033333
45.203567 77.328587 374.788508 2.548062 -7.646652 27.399028 -0.050867 -0.530207 -27.164327 0.480109 -0.555621 0.140140 -3.670850 -1.269204 -3.938986 0.000000 0.000000 0.000000 -14.252417 8.506384 2.104371 63.250762 42.922274 -45.068248 72.663947 -20.684446 24.242232 -38.141855 52.342055 11.035248 0.000000 0.000000 0.000000 0.000000 0.000000 0.000000 -0.123147 14.670532 0.050267 -61.140908 -18.309428 -3.409400 3.694688 -6.365757 -11.778326 -8.897323 -8.459013 14.804271 0.000000 0.000000 0.000000 0.000000 0.000000 0.000000 -16.535560 21.711641 -22.609279 23.963995 -12.992734 1.148082 -7.762126 20.265058 -0.256546 0.000000 0.000000 0.000000 4.054549 14.662720 -25.431607 0.365133 -7.233178 -2.411411 -0.895697 -5.985342 2.977892 0.000000 0.000000 0.000000
44.385437 75.218540 376.845613 3.837876 -10.860957 22.318275 0.105594 -0.293943 -21.862810 0.508718 -0.398789 0.184358 -4.896859 -0.352128 -4.629805 0.000000 0.000000 0.000000 -12.451783 10.028938 1.934373 62.368452 40.372281 -46.163195 61.132187 -22.950981 21.972082 -10.205919 56.443236 -6.224617 0.000000 0.000000 0.000000 0.000000 0.000000 0.000000 4.463468 13.735387 -3.807438 -61.393640 -16.229263 1.958192 5.247741 -27.250693 -12.535645 -15.860291 9.813333 20.484513 0.000000 0.000000 0.000000 0.000000 0.000000 0.000000 -25.406006 26.560574 -13.228788 29.030728 -16.024168 1.392100 -7.158861 18.051954 2.571509 0.000000 0.000000 0.000000 5.883892 23.857046 -19.501327 -0.878874 -13.328048 -4.239432 4.561398 -4.899528 -0.120181 0.000000 0.000000 0.000000
43.085924 72.527640 379.060325 4.851007 -14.072571 18.007558 0.200920 0.049697 -17.310200 0.517970 -0.208218 0.207549 -5.641488 0.562513 -5.286867 0.000000 0.000000 0.000000 -7.542412 10.433277 0.839277 51.887950 38.420588 -41.837735 48.699688 -26.314809 17.168767 1.823497 57.403126 -11.895392 0.000000 0.000000 0.000000 0.000000 0.000000 0.000000 11.095863 11.308144 -8.814607 -63.719739 -14.486585 7.959770 3.870961 -25.178006 -11.038958 -8.175822 7.052170 14.786980 0.000000 0.000000 0.000000 0.000000 0.000000 0.000000 -36.281993 29.779380 -3.046321 33.807809 -18.802569 1.386813 -3.294045 16.861428 2.766646 0.000000 0.000000 0.000000 9.214361 35.068481 -15.248648 -5.711567 -22.838719 -8.234600 8.058114 9.466736 -6.756788 0.000000 0.000000 0.000000
41.749876 69.871838 381.325171 7.007481 -16.736526 15.368605 0.067807 0.401085 -14.170078 0.514856 -0.022050 0.270608 -6.369728 1.355848 -6.095668 0.000000 0.000000 0.000000 -4.652618 11.419672 -0.191293 34.230391 34.960737 -30.196272 67.807762 -42.600809 29.458397 -176.536226 82.281150 140.315388 0.000000 0.000000 0.000000 0.000000 0.000000 0.000000 15.711326 7.244220 -13.234697 -66.727793 -13.385815 14.084567 5.404487 -22.581018 -9.359607 -0.973385 2.225136 9.803114 0.000000 0.000000 0.000000 0.000000 0.000000 0.000000 -49.087203 30.378408 6.402587 37.931817 -19.989557 0.786418 3.707470 15.382105 0.406043 0.000000 0.000000 0.000000 9.358399 46.571381 -11.773261 -7.983447 -30.894680 -11.792432 14.751398 13.755643 -13.318817 0.000000 0.000000 0.000000
39.181008 67.464024 383.875328 9.263250 -19.026373 14.041321 -0.076170 0.555898 -12.241125 0.432384 0.029275 0.349753 -7.111135 2.926150 -6.556239 0.000000 0.000000 0.000000 -2.073170 12.921642 -1.356329 18.942306 25.163628 -19.026444 60.221706 -57.679560 31.053996 -174.933051 44.281739 134.932205 0.000000 0.000000 0.000000 0.000000 0.000000 0.000000 19.397017 3.509395 -17.044032 -70.408717 -13.570174 19.167040 4.335459 -16.460366 -8.740315 5.032784 -9.267677 8.042517 0.000000 0.000000 0.000000 0.000000 0.000000 0.000000 -60.538242 29.733227 14.141823 42.200541 -20.379750 0.495336 6.710085 19.856150 -2.114396 0.000000 0.000000 0.000000 11.370583 55.964161 -11.620580 -10.320060 -36.151744 -13.915114 22.715276 12.814523 -20.113159 0.000000 0.000000 0.000000
36.200677 65.688006 386.124677 11.784045 -20.556975 14.012829 -0.117003 0.492004 -11.536204 0.308368 0.084110 0.452386 -8.258840 4.235554 -6.864036 0.000000 0.000000 0.000000 -2.504252 14.706481 -1.821240 10.776782 11.909799 -11.179136 26.245513 -62.245729 13.401488 -140.043082 59.653039 125.575356 0.000000 0.000000 0.000000 0.000000 0.000000 0.000000 19.176780 -0.595968 -18.881416 -71.613024 -12.788930 24.294541 2.899797 -8.493366 -8.451915 13.686019 -22.446786 8.334410 0.000000 0.000000 0.000000 0.000000 0.000000 0.000000 -68.663019 28.357402 18.718627 44.294073 -19.205011 -0.047352 13.638334 22.292678 -8.337371 0.000000 0.000000 0.000000 13.989063 61.235656 -14.197247 -9.126933 -37.764356 -12.143255 23.832685 2.434500 -18.832031 0.000000 0.000000 0.000000
32.312725 64.954532 388.079057 14.205277 -21.065604 13.021034 -0.192195 0.460344 -9.940432 0.134645 0.174998 0.554895 -8.388932 2.918803 -8.226764 0.000000 0.000000 0.000000 -4.445955 14.715175 -1.639230 6.796469 -1.283351 -5.595863 0.198743 -50.594209 0.433872 -53.442201 74.236008 51.945343 0.000000 0.000000 0.000000 0.000000 0.000000 0.000000 19.227071 -6.322643 -20.295802 -74.219794 -13.032421 29.877405 5.915141 3.112654 -8.319509 19.001482 -38.980755 13.289865 0.000000 0.000000 0.000000 0.000000 0.000000 0.000000 -72.981468 24.742167 20.254452 46.638554 -15.621294 -0.235754 14.789936 25.310157 -12.072230 0.000000 0.000000 0.000000 14.315209 62.799784 -15.155348 -7.814707 -35.597228 -9.049992 19.645077 -5.249315 -15.461399 0.000000 0.000000 0.000000
27.278534 63.787801 390.746438 15.249675 -22.062536 11.348892 -0.444988 0.384221 -7.852796 -0.133428 0.214086 0.608730 -7.727947 4.305169 -8.526765 0.000000 0.000000 0.000000 -6.571055 14.413386 -0.915359 7.196218 -10.429607 -2.629908 -8.567055 -39.412823 0.035505 9.464635 57.637963 -6.808242 0.000000 0.000000 0.000000 0.000000 0.000000 0.000000 16.801616 -8.917759 -20.206739 -73.144809 -11.141639 33.666561 6.795856 12.123954 -8.581732 22.084558 -47.652477 17.688155 0.000000 0.000000 0.000000 0.000000 0.000000 0.000000 -76.484870 23.355217 23.279720 52.248793 -16.324098 1.353721 9.796207 30.813469 -13.050021 0.000000 0.000000 0.000000 24.930437 66.740019 -23.272447 -10.371429 -35.406913 -7.737374 14.206961 -7.077636 -15.951268 0.000000 0.000000 0.000000
22.615704 62.651761 393.481376 16.340533 -23.188589 10.072672 -0.454254 0.206498 -6.139288 -0.156644 0.478857 0.621675 -11.778469 6.877246 -6.302737 0.000000 0.000000 0.000000 -11.262527 16.407851 0.542496 13.067366 -19.429831 -1.271671 -8.748560 -44.546986 -0.925889 -7.642563 56.060969 9.456398 0.000000 0.000000 0.000000 0.000000 0.000000 0.000000 10.203214 -8.770949 -18.259025 -68.435784 -7.698014 35.249418 6.546860 12.677842 -8.635242 18.454556 -45.230190 15.738399 0.000000 0.000000 0.000000 0.000000 0.000000 0.000000 -86.947501 23.661425 30.771476 62.646565 -20.063219 5.793862 13.357263 21.561252 -16.088693 0.000000 0.000000 0.000000 33.890588 68.510382 -31.007617 -12.095987 -34.212578 -6.273327 12.207954 -10.708763 -16.391666 0.000000 0.000000 0.000000
17.518452 61.324888 396.973873 15.088269 -24.924917 8.585796 -0.178862 0.750978 -4.837087 -0.078178 0.491411 0.568337 -13.752348 9.121336 -4.319069 0.000000 0.000000 0.000000 -15.443582 16.170245 2.516536 21.015348 -23.368256 -1.638820 -9.851120 -37.429802 -0.154052 13.502932 50.982826 -12.388491 0.000000 0.000000 0.000000 0.000000 0.000000 0.000000 2.756497 -5.446352 -14.518918 -60.012842 -3.298850 33.129099 5.288977 6.566121 -8.504835 14.955696 -32.993588 11.773888 0.000000 0.000000 0.000000 0.000000 0.000000 0.000000 -91.188476 27.808265 38.298800 68.670510 -25.403716 12.113737 14.483920 16.674112 -18.660126 0.000000 0.000000 0.000000 43.928898 67.975376 -38.475748 -13.518599 -32.087165 -4.464414 11.338632 -4.534746 -22.116199 0.000000 0.000000 0.000000
12.210019 60.000339 400.301976 12.013001 -26.437477 4.783140 0.057924 1.122235 -1.750768 -0.244453 0.427256 0.491166 -12.369136 11.077301 -3.391430 0.000000 0.000000 0.000000 -17.502114 12.818314 4.069251 29.784942 -21.164753 -5.380162 -14.843186 -18.448923 3.551189 25.466008 29.273801 -19.598782 0.000000 0.000000 0.000000 0.000000 0.000000 0.000000 -3.444028 -1.122443 -9.785933 -50.324818 0.270245 28.667931 4.971409 -1.578641 -8.427762 11.566335 -15.128194 8.324359 0.000000 0.000000 0.000000 0.000000 0.000000 0.000000 -91.093403 30.679700 44.115026 72.296020 -29.347696 18.204957 10.664465 11.761875 -15.965635 0.000000 0.000000 0.000000 59.280573 68.012291 -48.653388 -18.847464 -32.004477 -5.145063 12.776278 -9.894159 -21.220787 0.000000 0.000000 0.000000
7.652438 58.961218 402.574764 7.658137 -27.182976 -0.561296 0.429615 1.378865 2.377888 -0.271812 0.219193 0.363301 -10.709386 12.438082 -2.382099 0.000000 0.000000 0.000000 -17.262136 7.962245 4.577817 33.880412 -18.496342 -8.669490 -13.828819 12.859906 -1.957512 30.860270 3.512025 -8.469673 0.000000 0.000000 0.000000 0.000000 0.000000 0.000000 -9.675081 2.794168 -3.900610 -39.987611 3.164389 22.768567 6.603986 -10.154691 -8.225292 7.128750 4.315710 6.154081 0.000000 0.000000 0.000000 0.000000 0.000000 0.000000 -85.684464 32.615456 46.611772 71.181824 -31.462524 21.538120 7.365388 18.435613 -18.716961 0.000000 0.000000 0.000000 68.920161 67.928293 -52.767664 -24.919317 -32.020912 -7.023083 14.320197 -4.117810 -24.324190 0.000000 0.000000 0.000000
4.595106 58.146203 403.287470 5.093820 -26.411312 -3.810217 0.319528 1.141667 4.935218 -0.176622 -0.065029 0.257422 -9.434387 12.796745 -1.848925 0.000000 0.000000 0.000000 -16.075690 3.957177 4.265649 35.078829 -16.189324 -10.817784 -4.425975 35.080432 -14.276606 29.594124 -10.107798 8.161923 0.000000 0.000000 0.000000 0.000000 0.000000 0.000000 -12.817921 4.544736 -0.364454 -34.143254 3.853247 18.815663 6.789762 -13.365786 -8.109093 5.903578 14.334207 5.399761 0.000000 0.000000 0.000000 0.000000 0.000000 0.000000 -77.671219 32.555983 43.749971 66.778419 -30.661127 20.152990 6.344876 32.908498 -25.178806 0.000000 0.000000 0.000000 70.114396 66.015427 -50.589048 -28.310307 -30.376162 -6.935442 11.766771 -3.268730 -23.455222 0.000000 0.000000 0.000000
2.295142 57.477493 403.065010 2.371610 -24.658709 -6.785363 0.114077 0.636138 7.222292 -0.015987 -0.474918 0.119548 -7.403729 12.457830 -1.743089 0.000000 0.000000 0.000000 -13.200411 -0.422921 3.346454 34.278718 -12.629454 -12.584465 5.132355 39.587498 -24.510311 26.713061 -8.877689 12.922907 0.000000 0.000000 0.000000 0.000000 0.000000 0.000000 -14.837332 5.854206 2.693152 -29.243663 3.691633 14.926991 6.795817 -15.732415 -8.011686 5.251741 22.803406 4.781183 0.000000 0.000000 0.000000 0.000000 0.000000 0.000000 -64.809418 30.909618 37.279556 58.508127 -27.765735 15.673265 8.201730 57.851205 -36.296906 0.000000 0.000000 0.000000 68.037534 63.360670 -44.953529 -31.236405 -28.509418 -6.559285 7.574373 -2.226508 -21.234754 0.000000 0.000000 0.000000
0.752546 56.955089 401.907383 -0.477470 -21.832689 -9.403470 -0.174834 -0.173782 9.210480 0.215592 -1.026387 -0.058207 -4.564253 11.357985 -2.054364 0.000000 0.000000 0.000000 -8.846078 -5.082064 2.104361 31.815749 -8.011666 -13.667352 10.928661 35.635540 -29.498715 19.162666 4.564148 9.127444 0.000000 0.000000 0.000000 0.000000 0.000000 0.000000 -15.839125 6.714498 5.242380 -25.198255 2.878756 11.198648 6.605287 -17.388867 -7.945786 5.081460 29.766533 4.206967 0.000000 0.000000 0.000000 0.000000 0.000000 0.000000 -47.814723 26.167522 28.461207 47.099588 -21.962545 9.235064 21.493544 80.321141 -56.210342 0.000000 0.000000 0.000000 63.966281 59.636593 -36.937187 -33.669646 -26.507579 -5.857397 0.656514 -1.529404 -16.870615 0.000000 0.000000 0.000000
